<mxfile host="app.diagrams.net" modified="2022-07-28T14:21:23.105Z" agent="5.0 (Windows NT 10.0; Win64; x64) AppleWebKit/537.36 (KHTML, like Gecko) Chrome/103.0.5060.134 Safari/537.36 Edg/103.0.1264.71" etag="BjiDtqJkIorsoaLvD8i8" version="17.4.6" type="github">
  <diagram id="OdRuLCtFch298ZFKInq0" name="Page-1">
    <mxGraphModel dx="1393" dy="905" grid="1" gridSize="10" guides="1" tooltips="1" connect="1" arrows="1" fold="1" page="1" pageScale="1" pageWidth="827" pageHeight="1169" math="0" shadow="0">
      <root>
        <mxCell id="0" />
        <mxCell id="1" parent="0" />
        <mxCell id="6BC93X7g_cZap1g4WeOE-8" style="edgeStyle=orthogonalEdgeStyle;rounded=0;orthogonalLoop=1;jettySize=auto;html=1;curved=1;fillColor=#f8cecc;strokeColor=#b85450;" edge="1" parent="1" source="6BC93X7g_cZap1g4WeOE-3" target="6BC93X7g_cZap1g4WeOE-5">
          <mxGeometry relative="1" as="geometry" />
        </mxCell>
        <mxCell id="6BC93X7g_cZap1g4WeOE-9" style="edgeStyle=orthogonalEdgeStyle;rounded=0;orthogonalLoop=1;jettySize=auto;html=1;curved=1;fillColor=#f8cecc;strokeColor=#b85450;" edge="1" parent="1" source="6BC93X7g_cZap1g4WeOE-3" target="6BC93X7g_cZap1g4WeOE-6">
          <mxGeometry relative="1" as="geometry">
            <mxPoint x="283.00003397316937" y="315.0344827586207" as="targetPoint" />
          </mxGeometry>
        </mxCell>
        <mxCell id="6BC93X7g_cZap1g4WeOE-31" style="edgeStyle=orthogonalEdgeStyle;curved=1;rounded=0;orthogonalLoop=1;jettySize=auto;html=1;exitX=0.5;exitY=0.5;exitDx=0;exitDy=0;exitPerimeter=0;entryX=0;entryY=0.5;entryDx=0;entryDy=0;fillColor=#f8cecc;strokeColor=#b85450;" edge="1" parent="1" source="6BC93X7g_cZap1g4WeOE-3" target="6BC93X7g_cZap1g4WeOE-4">
          <mxGeometry relative="1" as="geometry" />
        </mxCell>
        <mxCell id="6BC93X7g_cZap1g4WeOE-3" value="Supplier Admin" style="shape=umlActor;verticalLabelPosition=bottom;verticalAlign=top;html=1;outlineConnect=0;fillColor=#f8cecc;strokeColor=#b85450;" vertex="1" parent="1">
          <mxGeometry x="76" y="280" width="30" height="60" as="geometry" />
        </mxCell>
        <mxCell id="6BC93X7g_cZap1g4WeOE-4" value="Add user" style="ellipse;whiteSpace=wrap;html=1;fillColor=#e51400;strokeColor=#B20000;fontColor=#ffffff;" vertex="1" parent="1">
          <mxGeometry x="283" y="130" width="140" height="70" as="geometry" />
        </mxCell>
        <mxCell id="6BC93X7g_cZap1g4WeOE-5" value="Assign a user to own org role" style="ellipse;whiteSpace=wrap;html=1;fillColor=#e51400;strokeColor=#B20000;fontColor=#ffffff;" vertex="1" parent="1">
          <mxGeometry x="286" y="230" width="140" height="70" as="geometry" />
        </mxCell>
        <mxCell id="6BC93X7g_cZap1g4WeOE-6" value="Remove a user assignment to own org role" style="ellipse;whiteSpace=wrap;html=1;fillColor=#e51400;strokeColor=#B20000;fontColor=#ffffff;" vertex="1" parent="1">
          <mxGeometry x="283" y="330" width="140" height="70" as="geometry" />
        </mxCell>
        <mxCell id="6BC93X7g_cZap1g4WeOE-10" style="edgeStyle=orthogonalEdgeStyle;rounded=0;orthogonalLoop=1;jettySize=auto;html=1;entryX=0;entryY=0.5;entryDx=0;entryDy=0;curved=1;fillColor=#f8cecc;strokeColor=#b85450;" edge="1" parent="1" source="6BC93X7g_cZap1g4WeOE-13" target="6BC93X7g_cZap1g4WeOE-14">
          <mxGeometry relative="1" as="geometry" />
        </mxCell>
        <mxCell id="6BC93X7g_cZap1g4WeOE-11" style="edgeStyle=orthogonalEdgeStyle;rounded=0;orthogonalLoop=1;jettySize=auto;html=1;curved=1;entryX=0;entryY=0.5;entryDx=0;entryDy=0;fillColor=#f8cecc;strokeColor=#b85450;" edge="1" parent="1" source="6BC93X7g_cZap1g4WeOE-13" target="6BC93X7g_cZap1g4WeOE-15">
          <mxGeometry relative="1" as="geometry" />
        </mxCell>
        <mxCell id="6BC93X7g_cZap1g4WeOE-12" style="edgeStyle=orthogonalEdgeStyle;rounded=0;orthogonalLoop=1;jettySize=auto;html=1;curved=1;fillColor=#f8cecc;strokeColor=#b85450;" edge="1" parent="1" source="6BC93X7g_cZap1g4WeOE-13" target="6BC93X7g_cZap1g4WeOE-16">
          <mxGeometry relative="1" as="geometry" />
        </mxCell>
        <mxCell id="6BC93X7g_cZap1g4WeOE-27" style="edgeStyle=orthogonalEdgeStyle;curved=1;rounded=0;orthogonalLoop=1;jettySize=auto;html=1;exitX=0.5;exitY=0.5;exitDx=0;exitDy=0;exitPerimeter=0;entryX=0;entryY=0.5;entryDx=0;entryDy=0;fillColor=#f8cecc;strokeColor=#b85450;" edge="1" parent="1" source="6BC93X7g_cZap1g4WeOE-13" target="6BC93X7g_cZap1g4WeOE-17">
          <mxGeometry relative="1" as="geometry" />
        </mxCell>
        <mxCell id="6BC93X7g_cZap1g4WeOE-28" style="edgeStyle=orthogonalEdgeStyle;curved=1;rounded=0;orthogonalLoop=1;jettySize=auto;html=1;exitX=0.5;exitY=0.5;exitDx=0;exitDy=0;exitPerimeter=0;entryX=0;entryY=0.5;entryDx=0;entryDy=0;fillColor=#f8cecc;strokeColor=#b85450;" edge="1" parent="1" source="6BC93X7g_cZap1g4WeOE-13" target="6BC93X7g_cZap1g4WeOE-18">
          <mxGeometry relative="1" as="geometry" />
        </mxCell>
        <mxCell id="6BC93X7g_cZap1g4WeOE-29" style="edgeStyle=orthogonalEdgeStyle;curved=1;rounded=0;orthogonalLoop=1;jettySize=auto;html=1;exitX=0.5;exitY=0.5;exitDx=0;exitDy=0;exitPerimeter=0;entryX=0;entryY=0.5;entryDx=0;entryDy=0;fillColor=#f8cecc;strokeColor=#b85450;" edge="1" parent="1" source="6BC93X7g_cZap1g4WeOE-13" target="6BC93X7g_cZap1g4WeOE-19">
          <mxGeometry relative="1" as="geometry" />
        </mxCell>
        <mxCell id="6BC93X7g_cZap1g4WeOE-38" style="edgeStyle=orthogonalEdgeStyle;curved=1;rounded=0;orthogonalLoop=1;jettySize=auto;html=1;exitX=0.5;exitY=0.5;exitDx=0;exitDy=0;exitPerimeter=0;entryX=0;entryY=0.5;entryDx=0;entryDy=0;fillColor=#f8cecc;strokeColor=#b85450;" edge="1" parent="1" source="6BC93X7g_cZap1g4WeOE-13" target="6BC93X7g_cZap1g4WeOE-36">
          <mxGeometry relative="1" as="geometry" />
        </mxCell>
        <mxCell id="6BC93X7g_cZap1g4WeOE-42" style="edgeStyle=orthogonalEdgeStyle;curved=1;rounded=0;orthogonalLoop=1;jettySize=auto;html=1;exitX=0.5;exitY=0.5;exitDx=0;exitDy=0;exitPerimeter=0;entryX=0;entryY=0.5;entryDx=0;entryDy=0;fillColor=#f8cecc;strokeColor=#b85450;" edge="1" parent="1" source="6BC93X7g_cZap1g4WeOE-13" target="6BC93X7g_cZap1g4WeOE-39">
          <mxGeometry relative="1" as="geometry" />
        </mxCell>
        <mxCell id="6BC93X7g_cZap1g4WeOE-13" value="Sales Agent Mgr" style="shape=umlActor;verticalLabelPosition=bottom;verticalAlign=top;html=1;outlineConnect=0;fillColor=#f8cecc;strokeColor=#b85450;" vertex="1" parent="1">
          <mxGeometry x="76" y="596" width="30" height="60" as="geometry" />
        </mxCell>
        <mxCell id="6BC93X7g_cZap1g4WeOE-14" value="Manage team accounts" style="ellipse;whiteSpace=wrap;html=1;fillColor=#6a00ff;strokeColor=#3700CC;fontColor=#ffffff;" vertex="1" parent="1">
          <mxGeometry x="283" y="420" width="140" height="70" as="geometry" />
        </mxCell>
        <mxCell id="6BC93X7g_cZap1g4WeOE-15" value="&lt;span&gt;View team accounts reports&lt;/span&gt;" style="ellipse;whiteSpace=wrap;html=1;fillColor=#6a00ff;strokeColor=#3700CC;fontColor=#ffffff;" vertex="1" parent="1">
          <mxGeometry x="283" y="500" width="140" height="70" as="geometry" />
        </mxCell>
        <mxCell id="6BC93X7g_cZap1g4WeOE-16" value="Manage team deals" style="ellipse;whiteSpace=wrap;html=1;fillColor=#6a00ff;strokeColor=#3700CC;fontColor=#ffffff;" vertex="1" parent="1">
          <mxGeometry x="283" y="586" width="140" height="70" as="geometry" />
        </mxCell>
        <mxCell id="6BC93X7g_cZap1g4WeOE-17" value="Manage own accounts" style="ellipse;whiteSpace=wrap;html=1;fillColor=#60a917;strokeColor=#2D7600;fontColor=#ffffff;" vertex="1" parent="1">
          <mxGeometry x="283" y="770" width="140" height="70" as="geometry" />
        </mxCell>
        <mxCell id="6BC93X7g_cZap1g4WeOE-18" value="View own accounts reports" style="ellipse;whiteSpace=wrap;html=1;fillColor=#60a917;strokeColor=#2D7600;fontColor=#ffffff;" vertex="1" parent="1">
          <mxGeometry x="283" y="880" width="140" height="70" as="geometry" />
        </mxCell>
        <mxCell id="6BC93X7g_cZap1g4WeOE-19" value="Manage own deals" style="ellipse;whiteSpace=wrap;html=1;fillColor=#60a917;strokeColor=#2D7600;fontColor=#ffffff;" vertex="1" parent="1">
          <mxGeometry x="283" y="980" width="140" height="70" as="geometry" />
        </mxCell>
        <mxCell id="6BC93X7g_cZap1g4WeOE-22" style="edgeStyle=orthogonalEdgeStyle;curved=1;rounded=0;orthogonalLoop=1;jettySize=auto;html=1;fillColor=#dae8fc;strokeColor=#6c8ebf;" edge="1" parent="1" source="6BC93X7g_cZap1g4WeOE-20" target="6BC93X7g_cZap1g4WeOE-21">
          <mxGeometry relative="1" as="geometry" />
        </mxCell>
        <mxCell id="6BC93X7g_cZap1g4WeOE-20" value="Public" style="shape=umlActor;verticalLabelPosition=bottom;verticalAlign=top;html=1;outlineConnect=0;fillColor=#dae8fc;strokeColor=#6c8ebf;" vertex="1" parent="1">
          <mxGeometry x="613" y="30" width="30" height="60" as="geometry" />
        </mxCell>
        <mxCell id="6BC93X7g_cZap1g4WeOE-21" value="Register" style="ellipse;whiteSpace=wrap;html=1;fillColor=#dae8fc;strokeColor=#6c8ebf;" vertex="1" parent="1">
          <mxGeometry x="286" y="25" width="140" height="70" as="geometry" />
        </mxCell>
        <mxCell id="6BC93X7g_cZap1g4WeOE-24" style="edgeStyle=orthogonalEdgeStyle;curved=1;rounded=0;orthogonalLoop=1;jettySize=auto;html=1;entryX=1;entryY=0.5;entryDx=0;entryDy=0;fillColor=#f8cecc;strokeColor=#b85450;" edge="1" parent="1" source="6BC93X7g_cZap1g4WeOE-23" target="6BC93X7g_cZap1g4WeOE-18">
          <mxGeometry relative="1" as="geometry" />
        </mxCell>
        <mxCell id="6BC93X7g_cZap1g4WeOE-25" style="edgeStyle=orthogonalEdgeStyle;curved=1;rounded=0;orthogonalLoop=1;jettySize=auto;html=1;entryX=1;entryY=0.5;entryDx=0;entryDy=0;fillColor=#f8cecc;strokeColor=#b85450;" edge="1" parent="1" source="6BC93X7g_cZap1g4WeOE-23" target="6BC93X7g_cZap1g4WeOE-17">
          <mxGeometry relative="1" as="geometry" />
        </mxCell>
        <mxCell id="6BC93X7g_cZap1g4WeOE-26" style="edgeStyle=orthogonalEdgeStyle;curved=1;rounded=0;orthogonalLoop=1;jettySize=auto;html=1;entryX=1;entryY=0.5;entryDx=0;entryDy=0;fillColor=#f8cecc;strokeColor=#b85450;" edge="1" parent="1" source="6BC93X7g_cZap1g4WeOE-23" target="6BC93X7g_cZap1g4WeOE-19">
          <mxGeometry relative="1" as="geometry" />
        </mxCell>
        <mxCell id="6BC93X7g_cZap1g4WeOE-37" style="edgeStyle=orthogonalEdgeStyle;curved=1;rounded=0;orthogonalLoop=1;jettySize=auto;html=1;exitX=0.5;exitY=0.5;exitDx=0;exitDy=0;exitPerimeter=0;entryX=1;entryY=0.5;entryDx=0;entryDy=0;fillColor=#f8cecc;strokeColor=#b85450;" edge="1" parent="1" source="6BC93X7g_cZap1g4WeOE-23" target="6BC93X7g_cZap1g4WeOE-36">
          <mxGeometry relative="1" as="geometry" />
        </mxCell>
        <mxCell id="6BC93X7g_cZap1g4WeOE-23" value="Sales Agent" style="shape=umlActor;verticalLabelPosition=bottom;verticalAlign=top;html=1;outlineConnect=0;fillColor=#f8cecc;strokeColor=#b85450;" vertex="1" parent="1">
          <mxGeometry x="673" y="885" width="30" height="60" as="geometry" />
        </mxCell>
        <mxCell id="6BC93X7g_cZap1g4WeOE-36" value="Manage own deals contracts" style="ellipse;whiteSpace=wrap;html=1;fillColor=#60a917;strokeColor=#2D7600;fontColor=#ffffff;" vertex="1" parent="1">
          <mxGeometry x="283" y="1070" width="140" height="70" as="geometry" />
        </mxCell>
        <mxCell id="6BC93X7g_cZap1g4WeOE-39" value="Manage team deal contracts" style="ellipse;whiteSpace=wrap;html=1;fillColor=#6a00ff;strokeColor=#3700CC;fontColor=#ffffff;" vertex="1" parent="1">
          <mxGeometry x="283" y="670" width="140" height="70" as="geometry" />
        </mxCell>
        <mxCell id="6BC93X7g_cZap1g4WeOE-43" style="edgeStyle=orthogonalEdgeStyle;curved=1;rounded=0;orthogonalLoop=1;jettySize=auto;html=1;exitX=0.5;exitY=0.5;exitDx=0;exitDy=0;exitPerimeter=0;" edge="1" parent="1" source="6BC93X7g_cZap1g4WeOE-46" target="6BC93X7g_cZap1g4WeOE-49">
          <mxGeometry relative="1" as="geometry" />
        </mxCell>
        <mxCell id="6BC93X7g_cZap1g4WeOE-44" style="edgeStyle=orthogonalEdgeStyle;curved=1;rounded=0;orthogonalLoop=1;jettySize=auto;html=1;exitX=0.5;exitY=0.5;exitDx=0;exitDy=0;exitPerimeter=0;entryX=0.995;entryY=0.565;entryDx=0;entryDy=0;entryPerimeter=0;" edge="1" parent="1" source="6BC93X7g_cZap1g4WeOE-46" target="6BC93X7g_cZap1g4WeOE-50">
          <mxGeometry relative="1" as="geometry" />
        </mxCell>
        <mxCell id="6BC93X7g_cZap1g4WeOE-45" style="edgeStyle=orthogonalEdgeStyle;curved=1;rounded=0;orthogonalLoop=1;jettySize=auto;html=1;" edge="1" parent="1" source="6BC93X7g_cZap1g4WeOE-46" target="6BC93X7g_cZap1g4WeOE-51">
          <mxGeometry relative="1" as="geometry" />
        </mxCell>
        <mxCell id="6BC93X7g_cZap1g4WeOE-46" value="POWWR Admin" style="shape=umlActor;verticalLabelPosition=bottom;verticalAlign=top;html=1;outlineConnect=0;" vertex="1" parent="1">
          <mxGeometry x="715" y="235" width="30" height="60" as="geometry" />
        </mxCell>
        <mxCell id="6BC93X7g_cZap1g4WeOE-47" style="edgeStyle=orthogonalEdgeStyle;rounded=0;orthogonalLoop=1;jettySize=auto;html=1;entryX=1;entryY=0.5;entryDx=0;entryDy=0;curved=1;exitX=0.5;exitY=0.5;exitDx=0;exitDy=0;exitPerimeter=0;" edge="1" parent="1" source="6BC93X7g_cZap1g4WeOE-46" target="6BC93X7g_cZap1g4WeOE-4">
          <mxGeometry relative="1" as="geometry">
            <mxPoint x="943" y="300" as="sourcePoint" />
            <mxPoint x="693" y="165" as="targetPoint" />
            <Array as="points">
              <mxPoint x="613" y="265" />
              <mxPoint x="613" y="165" />
            </Array>
          </mxGeometry>
        </mxCell>
        <mxCell id="6BC93X7g_cZap1g4WeOE-49" value="Assign a user to an org role" style="ellipse;whiteSpace=wrap;html=1;fillColor=#e51400;strokeColor=#B20000;fontColor=#ffffff;" vertex="1" parent="1">
          <mxGeometry x="473" y="230" width="140" height="70" as="geometry" />
        </mxCell>
        <mxCell id="6BC93X7g_cZap1g4WeOE-50" value="Remove a user assignment to an org role" style="ellipse;whiteSpace=wrap;html=1;fillColor=#e51400;strokeColor=#B20000;fontColor=#ffffff;" vertex="1" parent="1">
          <mxGeometry x="473" y="330" width="140" height="70" as="geometry" />
        </mxCell>
        <mxCell id="6BC93X7g_cZap1g4WeOE-51" value="Manage Roles" style="ellipse;whiteSpace=wrap;html=1;fillColor=#dae8fc;strokeColor=#6c8ebf;" vertex="1" parent="1">
          <mxGeometry x="660" y="95" width="140" height="70" as="geometry" />
        </mxCell>
        <mxCell id="6BC93X7g_cZap1g4WeOE-52" value="New Role/Actor&lt;br&gt;for current iteration" style="rounded=0;whiteSpace=wrap;html=1;fillColor=#f8cecc;strokeColor=#b85450;" vertex="1" parent="1">
          <mxGeometry x="13" y="10" width="120" height="30" as="geometry" />
        </mxCell>
        <mxCell id="6BC93X7g_cZap1g4WeOE-53" value="Future use cases/actors" style="rounded=0;whiteSpace=wrap;html=1;fillColor=#dae8fc;strokeColor=#6c8ebf;" vertex="1" parent="1">
          <mxGeometry x="13" y="50" width="120" height="30" as="geometry" />
        </mxCell>
      </root>
    </mxGraphModel>
  </diagram>
</mxfile>
